<svg width="195" height="24" viewBox="0 0 195 24" fill="none" xmlns="http://www.w3.org/2000/svg">
<path d="M39.8088 5.14258C41.256 5.14258 42.4583 5.51029 43.4156 6.24572C44.373 6.98115 45.0187 7.97844 45.3526 9.23758H43.3321C43.0538 8.52444 42.6085 7.96172 41.9963 7.54944C41.3951 7.12601 40.6549 6.91429 39.7754 6.91429C39.0741 6.91429 38.4451 7.08701 37.8885 7.43244C37.343 7.77786 36.9089 8.27372 36.586 8.92001C36.2743 9.55515 36.1185 10.3017 36.1185 11.1597C36.1185 12.0066 36.2743 12.7531 36.586 13.3994C36.9089 14.0346 37.343 14.5249 37.8885 14.8703C38.4451 15.2157 39.0741 15.3884 39.7754 15.3884C40.6549 15.3884 41.3951 15.1823 41.9963 14.77C42.6085 14.3466 43.0538 13.7839 43.3321 13.0819H45.3526C45.0187 14.341 44.373 15.3383 43.4156 16.0737C42.4583 16.798 41.256 17.1602 39.8088 17.1602C38.6956 17.1602 37.7104 16.9094 36.8532 16.408C35.996 15.8954 35.3337 15.1879 34.8661 14.2853C34.3986 13.3716 34.1648 12.3297 34.1648 11.1597C34.1648 9.98972 34.3986 8.95344 34.8661 8.05086C35.3337 7.13715 35.996 6.42401 36.8532 5.91144C37.7104 5.39886 38.6956 5.14258 39.8088 5.14258Z" fill="#0C0C0C"/>
<path d="M51.4599 7.73329C52.3505 7.73329 53.152 7.92272 53.8644 8.30158C54.5769 8.68044 55.1335 9.22644 55.5343 9.93958C55.935 10.6527 56.1354 11.4884 56.1354 12.4467C56.1354 13.4162 55.935 14.2574 55.5343 14.9706C55.1335 15.6837 54.5769 16.2297 53.8644 16.6086C53.152 16.9874 52.3505 17.1769 51.4599 17.1769C50.5693 17.1769 49.7678 16.9874 49.0553 16.6086C48.354 16.2297 47.7974 15.6837 47.3855 14.9706C46.9847 14.2463 46.7844 13.405 46.7844 12.4467C46.7844 11.4884 46.9847 10.6527 47.3855 9.93958C47.7974 9.22644 48.354 8.68044 49.0553 8.30158C49.7678 7.92272 50.5693 7.73329 51.4599 7.73329ZM51.4599 9.38801C50.9701 9.38801 50.5192 9.49944 50.1073 9.72229C49.6954 9.94515 49.3615 10.2906 49.1054 10.7586C48.8605 11.2154 48.7381 11.7781 48.7381 12.4467C48.7381 13.1264 48.8605 13.6947 49.1054 14.1516C49.3615 14.6084 49.6954 14.9483 50.1073 15.1711C50.5192 15.394 50.9701 15.5054 51.4599 15.5054C51.9497 15.5054 52.4006 15.394 52.8124 15.1711C53.2243 14.9483 53.5527 14.6084 53.7976 14.1516C54.0537 13.6947 54.1817 13.1264 54.1817 12.4467C54.1817 11.7781 54.0537 11.2154 53.7976 10.7586C53.5527 10.2906 53.2243 9.94515 52.8124 9.72229C52.4006 9.49944 51.9497 9.38801 51.4599 9.38801Z" fill="#0C0C0C"/>
<path d="M69.4706 7.69986C70.5616 7.69986 71.4299 8.04529 72.0756 8.73615C72.7324 9.42701 73.0608 10.4131 73.0608 11.6946V17.0599H71.1572V11.8952C71.1572 11.0929 70.9568 10.4744 70.556 10.0399C70.1553 9.59415 69.6042 9.37129 68.9029 9.37129C68.1571 9.37129 67.5615 9.61086 67.1162 10.09C66.682 10.558 66.465 11.2489 66.465 12.1626V17.0599H64.5614V11.8952C64.5614 11.0929 64.361 10.4744 63.9602 10.0399C63.5595 9.59415 63.0084 9.37129 62.3071 9.37129C61.5612 9.37129 60.9657 9.61086 60.5204 10.09C60.0862 10.558 59.8692 11.2489 59.8692 12.1626V17.0599H57.9655V7.85029H59.8692V9.77244C60.1029 9.10386 60.4925 8.59129 61.038 8.23472C61.5835 7.87815 62.2236 7.69986 62.9583 7.69986C63.7264 7.69986 64.3888 7.88929 64.9454 8.26815C65.5132 8.64701 65.925 9.19301 66.1811 9.90615C66.4483 9.21529 66.8769 8.67486 67.4669 8.28486C68.0569 7.89486 68.7248 7.69986 69.4706 7.69986Z" fill="#0C0C0C"/>
<path d="M86.7886 7.69986C87.8795 7.69986 88.7478 8.04529 89.3935 8.73615C90.0503 9.42701 90.3787 10.4131 90.3787 11.6946V17.0599H88.4751V11.8952C88.4751 11.0929 88.2747 10.4744 87.874 10.0399C87.4732 9.59415 86.9222 9.37129 86.2208 9.37129C85.475 9.37129 84.8794 9.61086 84.4341 10.09C84 10.558 83.7829 11.2489 83.7829 12.1626V17.0599H81.8793V11.8952C81.8793 11.0929 81.6789 10.4744 81.2781 10.0399C80.8774 9.59415 80.3263 9.37129 79.625 9.37129C78.8792 9.37129 78.2836 9.61086 77.8383 10.09C77.4041 10.558 77.1871 11.2489 77.1871 12.1626V17.0599H75.2835V7.85029H77.1871V9.77244C77.4208 9.10386 77.8105 8.59129 78.3559 8.23472C78.9014 7.87815 79.5415 7.69986 80.2762 7.69986C81.0444 7.69986 81.7067 7.88929 82.2633 8.26815C82.8311 8.64701 83.243 9.19301 83.499 9.90615C83.7662 9.21529 84.1948 8.67486 84.7848 8.28486C85.3748 7.89486 86.0427 7.69986 86.7886 7.69986Z" fill="#0C0C0C"/>
<path d="M101.151 12.0121C101.151 12.3241 101.129 12.5971 101.084 12.8311H94.004C94.0374 13.7783 94.299 14.4803 94.7889 14.9372C95.2787 15.394 95.8854 15.6224 96.609 15.6224C97.2435 15.6224 97.7778 15.4609 98.212 15.1377C98.6573 14.8146 98.93 14.3856 99.0302 13.8507H101.067C100.945 14.497 100.689 15.0709 100.299 15.5723C99.9096 16.0737 99.4031 16.4693 98.7797 16.759C98.1563 17.0376 97.4606 17.1769 96.6925 17.1769C95.8019 17.1769 95.0115 16.9874 94.3213 16.6086C93.6422 16.2297 93.1079 15.6837 92.7183 14.9706C92.3286 14.2574 92.1338 13.4162 92.1338 12.4467C92.1338 11.4884 92.3286 10.6527 92.7183 9.93958C93.1079 9.22644 93.6422 8.68044 94.3213 8.30158C95.0115 7.92272 95.8019 7.73329 96.6925 7.73329C97.5942 7.73329 98.379 7.92272 99.0469 8.30158C99.726 8.66929 100.244 9.18186 100.6 9.83929C100.967 10.4856 101.151 11.2099 101.151 12.0121ZM99.2306 11.962C99.2528 11.3603 99.1471 10.8589 98.9133 10.4577C98.6907 10.0454 98.379 9.74458 97.9782 9.55515C97.5886 9.35458 97.16 9.25429 96.6925 9.25429C95.9466 9.25429 95.3232 9.48272 94.8223 9.93958C94.3213 10.3964 94.0486 11.0706 94.004 11.962H99.2306Z" fill="#0C0C0C"/>
<path d="M104.892 9.65544C105.204 9.05372 105.649 8.58015 106.228 8.23472C106.807 7.87815 107.475 7.69986 108.232 7.69986V9.77244H107.664C106.829 9.77244 106.156 9.97858 105.644 10.3909C105.143 10.792 104.892 11.4606 104.892 12.3966V17.0599H102.989V7.85029H104.892V9.65544Z" fill="#0C0C0C"/>
<path d="M113.749 7.73329C114.941 7.73329 115.926 8.05086 116.705 8.68601C117.484 9.31001 117.969 10.1624 118.158 11.2433H116.137C116.026 10.6639 115.753 10.2126 115.319 9.88944C114.896 9.55515 114.362 9.38801 113.716 9.38801C112.981 9.38801 112.369 9.64986 111.879 10.1736C111.389 10.6862 111.145 11.4439 111.145 12.4467C111.145 13.4496 111.389 14.2129 111.879 14.7366C112.369 15.2603 112.981 15.5221 113.716 15.5221C114.362 15.5221 114.896 15.355 115.319 15.0207C115.753 14.6864 116.026 14.2296 116.137 13.6502H118.158C117.969 14.731 117.484 15.589 116.705 16.2241C115.926 16.8593 114.941 17.1769 113.749 17.1769C112.859 17.1769 112.068 16.9874 111.378 16.6086C110.699 16.2297 110.165 15.6837 109.775 14.9706C109.386 14.2574 109.191 13.4162 109.191 12.4467C109.191 11.4884 109.386 10.6527 109.775 9.93958C110.165 9.22644 110.699 8.68044 111.378 8.30158C112.068 7.92272 112.859 7.73329 113.749 7.73329Z" fill="#0C0C0C"/>
<path d="M128.546 12.0121C128.546 12.3241 128.524 12.5971 128.48 12.8311H121.4C121.433 13.7783 121.695 14.4803 122.184 14.9372C122.674 15.394 123.281 15.6224 124.005 15.6224C124.639 15.6224 125.173 15.4609 125.608 15.1377C126.053 14.8146 126.326 14.3856 126.426 13.8507H128.463C128.341 14.497 128.084 15.0709 127.695 15.5723C127.305 16.0737 126.799 16.4693 126.175 16.759C125.552 17.0376 124.856 17.1769 124.088 17.1769C123.197 17.1769 122.407 16.9874 121.717 16.6086C121.038 16.2297 120.503 15.6837 120.114 14.9706C119.724 14.2574 119.529 13.4162 119.529 12.4467C119.529 11.4884 119.724 10.6527 120.114 9.93958C120.503 9.22644 121.038 8.68044 121.717 8.30158C122.407 7.92272 123.197 7.73329 124.088 7.73329C124.99 7.73329 125.775 7.92272 126.442 8.30158C127.122 8.66929 127.639 9.18186 127.995 9.83929C128.363 10.4856 128.546 11.2099 128.546 12.0121ZM126.626 11.962C126.648 11.3603 126.543 10.8589 126.309 10.4577C126.086 10.0454 125.775 9.74458 125.374 9.55515C124.984 9.35458 124.556 9.25429 124.088 9.25429C123.342 9.25429 122.719 9.48272 122.218 9.93958C121.717 10.3964 121.444 11.0706 121.4 11.962H126.626Z" fill="#0C0C0C"/>
<path d="M137.298 10.9759C138.01 11.143 138.572 11.4884 138.984 12.0121C139.407 12.5359 139.619 13.1432 139.619 13.834C139.619 14.848 139.279 15.6392 138.6 16.2074C137.932 16.7757 136.969 17.0599 135.711 17.0599H130.217V5.24286H135.578C136.78 5.24286 137.709 5.50472 138.366 6.02844C139.023 6.55215 139.351 7.29872 139.351 8.26815C139.351 8.98129 139.162 9.57744 138.784 10.0566C138.405 10.5246 137.91 10.831 137.298 10.9759ZM133.073 10.0733H134.943C135.934 10.0733 136.429 9.64986 136.429 8.80301C136.429 7.95615 135.923 7.53272 134.91 7.53272H133.073V10.0733ZM135.11 14.7366C136.168 14.7366 136.696 14.302 136.696 13.4329C136.696 13.0094 136.557 12.6807 136.279 12.4467C136.001 12.2016 135.605 12.079 135.093 12.079H133.073V14.7366H135.11Z" fill="#0C0C0C"/>
<path d="M145.485 7.61629C146.409 7.61629 147.233 7.81129 147.956 8.20129C148.691 8.58015 149.264 9.13172 149.676 9.85601C150.099 10.5803 150.311 11.4272 150.311 12.3966C150.311 13.366 150.099 14.2129 149.676 14.9372C149.264 15.6614 148.691 16.2186 147.956 16.6086C147.233 16.9874 146.409 17.1769 145.485 17.1769C144.561 17.1769 143.732 16.9874 142.997 16.6086C142.262 16.2186 141.683 15.6614 141.26 14.9372C140.848 14.2129 140.643 13.366 140.643 12.3966C140.643 11.4272 140.848 10.5803 141.26 9.85601C141.683 9.13172 142.262 8.58015 142.997 8.20129C143.732 7.81129 144.561 7.61629 145.485 7.61629ZM145.485 10.09C144.94 10.09 144.478 10.2906 144.099 10.6917C143.732 11.0817 143.548 11.65 143.548 12.3966C143.548 13.1432 143.732 13.7114 144.099 14.1014C144.478 14.4914 144.94 14.6864 145.485 14.6864C146.03 14.6864 146.487 14.4914 146.854 14.1014C147.222 13.7114 147.405 13.1432 147.405 12.3966C147.405 11.65 147.222 11.0817 146.854 10.6917C146.487 10.2906 146.03 10.09 145.485 10.09Z" fill="#0C0C0C"/>
<path d="M156.15 7.61629C157.074 7.61629 157.897 7.81129 158.621 8.20129C159.356 8.58015 159.929 9.13172 160.341 9.85601C160.764 10.5803 160.976 11.4272 160.976 12.3966C160.976 13.366 160.764 14.2129 160.341 14.9372C159.929 15.6614 159.356 16.2186 158.621 16.6086C157.897 16.9874 157.074 17.1769 156.15 17.1769C155.226 17.1769 154.396 16.9874 153.662 16.6086C152.927 16.2186 152.348 15.6614 151.925 14.9372C151.513 14.2129 151.307 13.366 151.307 12.3966C151.307 11.4272 151.513 10.5803 151.925 9.85601C152.348 9.13172 152.927 8.58015 153.662 8.20129C154.396 7.81129 155.226 7.61629 156.15 7.61629ZM156.15 10.09C155.604 10.09 155.142 10.2906 154.764 10.6917C154.396 11.0817 154.213 11.65 154.213 12.3966C154.213 13.1432 154.396 13.7114 154.764 14.1014C155.142 14.4914 155.604 14.6864 156.15 14.6864C156.695 14.6864 157.152 14.4914 157.519 14.1014C157.886 13.7114 158.07 13.1432 158.07 12.3966C158.07 11.65 157.886 11.0817 157.519 10.6917C157.152 10.2906 156.695 10.09 156.15 10.09Z" fill="#0C0C0C"/>
<path d="M165.846 7.61629C167.026 7.61629 167.967 7.91158 168.668 8.50215C169.38 9.09272 169.826 9.87272 170.004 10.8421H167.332C167.254 10.4633 167.076 10.168 166.798 9.95629C166.531 9.73344 166.191 9.62201 165.779 9.62201C165.456 9.62201 165.211 9.69444 165.044 9.83929C164.877 9.97301 164.794 10.168 164.794 10.4243C164.794 10.714 164.944 10.9313 165.245 11.0761C165.556 11.221 166.041 11.3659 166.698 11.5107C167.41 11.6779 167.994 11.8506 168.451 12.0289C168.907 12.196 169.302 12.4746 169.636 12.8646C169.97 13.2546 170.137 13.7783 170.137 14.4357C170.137 14.9706 169.993 15.4442 169.703 15.8564C169.414 16.2687 168.996 16.5919 168.451 16.8259C167.905 17.0599 167.26 17.1769 166.514 17.1769C165.256 17.1769 164.248 16.8983 163.491 16.3412C162.734 15.784 162.272 14.9873 162.106 13.951H164.861C164.905 14.3521 165.072 14.6586 165.362 14.8703C165.662 15.082 166.046 15.1879 166.514 15.1879C166.837 15.1879 167.082 15.1154 167.249 14.9706C167.416 14.8146 167.499 14.614 167.499 14.3689C167.499 14.0457 167.343 13.8173 167.032 13.6836C166.731 13.5387 166.236 13.3883 165.545 13.2323C164.855 13.0874 164.287 12.9314 163.842 12.7643C163.397 12.5972 163.013 12.3297 162.69 11.962C162.367 11.5832 162.206 11.0706 162.206 10.4243C162.206 9.58858 162.523 8.91444 163.158 8.40186C163.792 7.87815 164.688 7.61629 165.846 7.61629Z" fill="#0C0C0C"/>
<path d="M176.995 14.6029V17.0599H175.709C174.618 17.0599 173.767 16.7924 173.155 16.2576C172.553 15.7116 172.253 14.8146 172.253 13.5666V10.1401H171V7.73329H172.253V5.44344H175.108V7.73329H176.978V10.1401H175.108V13.6167C175.108 13.9844 175.181 14.2407 175.325 14.3856C175.481 14.5304 175.737 14.6029 176.093 14.6029H176.995Z" fill="#0C0C0C"/>
<path d="M187.45 12.1459C187.45 12.3799 187.422 12.6362 187.367 12.9147H180.904C180.938 13.6167 181.116 14.1237 181.439 14.4357C181.762 14.7366 182.173 14.887 182.674 14.887C183.097 14.887 183.448 14.7811 183.726 14.5694C184.005 14.3577 184.188 14.0847 184.277 13.7504H187.3C187.177 14.4079 186.91 14.9984 186.498 15.5221C186.086 16.0347 185.563 16.4414 184.929 16.7423C184.294 17.032 183.587 17.1769 182.808 17.1769C181.895 17.1769 181.082 16.9874 180.37 16.6086C179.669 16.2186 179.118 15.6614 178.717 14.9372C178.316 14.2129 178.116 13.366 178.116 12.3966C178.116 11.416 178.311 10.5691 178.7 9.85601C179.101 9.13172 179.658 8.58015 180.37 8.20129C181.082 7.81129 181.895 7.61629 182.808 7.61629C183.732 7.61629 184.545 7.80572 185.246 8.18458C185.947 8.56344 186.487 9.09829 186.866 9.78915C187.255 10.4689 187.45 11.2544 187.45 12.1459ZM184.561 11.7113C184.572 11.0984 184.405 10.6416 184.06 10.3407C183.726 10.0287 183.309 9.87272 182.808 9.87272C182.285 9.87272 181.851 10.0287 181.506 10.3407C181.16 10.6527 180.966 11.1096 180.921 11.7113H184.561Z" fill="#0C0C0C"/>
<path d="M191.794 9.48829C192.15 8.92001 192.607 8.46872 193.163 8.13444C193.731 7.80015 194.343 7.63301 195 7.63301V10.6917H194.182C193.425 10.6917 192.835 10.8533 192.412 11.1764C192 11.4996 191.794 12.0456 191.794 12.8144V17.0599H188.939V7.73329H191.794V9.48829Z" fill="#0C0C0C"/>
<path d="M3.52859e-05 15L13.6981 7.34739L13.7012 1.90735e-06L3.58285e-05 7.64889L3.52859e-05 15Z" fill="#B5CBEF"/>
<path d="M29.115 11.5712L14.9857 19.7365L14.9857 3.40577L29.115 11.5712Z" fill="#1071FF"/>
<path d="M6.42245 20.0487L13.7012 24L13.7012 16.7119L6.42245 12.8571L6.42245 20.0487Z" fill="#B5CBEF"/>
</svg>
