<svg width="24" height="24" viewBox="0 0 24 24" fill="none" xmlns="http://www.w3.org/2000/svg">
<path d="M5.21996 1.79999C4.33496 1.79999 3.64496 2.15154 3.21744 2.65499C2.78993 3.15844 2.61744 3.78373 2.61744 4.34999C2.61744 5.17124 2.99057 5.83031 3.46493 6.29999C3.49868 6.33374 3.53524 6.36561 3.56993 6.39749H2.18244C1.90496 6.39843 1.68089 6.62249 1.67993 6.9V12C1.68087 12.2766 1.90493 12.5016 2.18244 12.5025H2.61744V21.6974C2.61838 21.9739 2.84244 22.1989 3.11996 22.1999H20.88C21.014 22.2008 21.1443 22.1493 21.24 22.0546C21.3356 21.9599 21.39 21.8315 21.39 21.6974V12.5025H21.8174C22.0949 12.5016 22.319 12.2766 22.32 12V6.90001C22.3209 6.6422 22.1268 6.42469 21.87 6.3975C21.8521 6.39656 21.8353 6.39656 21.8175 6.3975H20.43C20.4647 6.36562 20.5012 6.33375 20.535 6.3C21.0094 5.83032 21.39 5.17125 21.39 4.35C21.39 3.78374 21.21 3.15844 20.7825 2.65499C20.355 2.15155 19.665 1.8 18.78 1.8C17.4225 1.8 15.9177 2.61748 14.5725 3.6C13.5272 4.36312 12.6047 5.22561 12 6.00744C11.3953 5.22556 10.4728 4.36305 9.42741 3.6C8.08209 2.61748 6.57741 1.8 5.21997 1.8L5.21996 1.79999ZM5.21996 2.8125C6.13215 2.8125 7.5787 3.49969 8.83484 4.4175C9.69828 5.0475 10.482 5.78344 11.0098 6.3975H5.3624C4.93395 6.16031 4.4952 5.89499 4.1774 5.58001C3.83333 5.23969 3.6224 4.88063 3.6224 4.35001C3.6224 3.99656 3.73865 3.5944 3.9824 3.3075C4.2252 3.02063 4.5824 2.8125 5.21988 2.8125H5.21996ZM18.78 2.8125C19.4174 2.8125 19.7737 3.02063 20.0174 3.3075C20.2612 3.59437 20.3774 3.99656 20.3774 4.35001C20.3774 4.88063 20.174 5.23969 19.83 5.58001C19.5121 5.89501 19.0734 6.16033 18.645 6.3975H12.9901C13.5179 5.78344 14.3026 5.0475 15.1651 4.4175C16.4213 3.49969 17.868 2.8125 18.78 2.8125ZM2.69252 7.4025H5.17508C5.20695 7.40531 5.23976 7.40531 5.27258 7.4025H11.4977V11.4974H2.69258L2.69252 7.4025ZM12.5025 7.4025H18.6374C18.719 7.42313 18.8033 7.42313 18.8849 7.4025H21.3149V11.4974H12.5023L12.5025 7.4025ZM3.62252 12.5025H11.4974V21.1951H3.62252V12.5025ZM12.5025 12.5025H20.3774V21.1951H12.5025V12.5025Z" fill="#0C0C0C"/>
</svg>
